<?xml version="1.0" encoding="UTF-8"?>
<!DOCTYPE svg PUBLIC "-//W3C//DTD SVG 1.1//EN" "http://www.w3.org/Graphics/SVG/1.1/DTD/svg11.dtd">
<!-- Creator: CorelDRAW -->
<svg xmlns="http://www.w3.org/2000/svg" xml:space="preserve" width="44.1324mm" height="48.9421mm" version="1.1" style="shape-rendering:geometricPrecision; text-rendering:geometricPrecision; image-rendering:optimizeQuality; fill-rule:evenodd; clip-rule:evenodd"
viewBox="0 0 959.44 1064"
 xmlns:xlink="http://www.w3.org/1999/xlink"
 xmlns:xodm="http://www.corel.com/coreldraw/odm/2003">
 <defs>
  <style type="text/css">
   <![CDATA[
    .fil0 {fill:#016630;fill-rule:nonzero}
   ]]>
  </style>
 </defs>
 <g id="Capa_x0020_1">
  <metadata id="CorelCorpID_0Corel-Layer"/>
  <g id="empty-cart-svgrepo-com.svg">
   <g>
    <path class="fil0" d="M441.36 670.03c1.83,17.73 16.8,30.93 34.24,30.93 1.18,0 2.38,-0.06 3.58,-0.18 18.94,-1.96 32.7,-18.89 30.74,-37.83l-15.9 -153.81c-1.96,-18.94 -18.9,-32.68 -37.83,-30.74 -18.94,1.96 -32.7,18.89 -30.74,37.83l15.9 153.8z"/>
    <path class="fil0" d="M657.06 700.78c1.2,0.12 2.4,0.18 3.58,0.18 17.44,0 32.41,-13.2 34.24,-30.93l15.89 -153.81c1.96,-18.94 -11.81,-35.87 -30.74,-37.83 -18.95,-1.93 -35.87,11.81 -37.83,30.74l-15.89 153.81c-1.96,18.94 11.81,35.87 30.74,37.83z"/>
    <path class="fil0" d="M390.18 850.6c-58.83,0 -106.69,47.86 -106.69,106.69 0,58.84 47.86,106.71 106.69,106.71 58.83,0 106.69,-47.87 106.69,-106.71 0,-58.83 -47.86,-106.69 -106.69,-106.69zm0 144.46c-20.82,0 -37.75,-16.95 -37.75,-37.78 0,-20.82 16.93,-37.75 37.75,-37.75 20.82,0 37.76,16.94 37.76,37.75 0,20.83 -16.94,37.78 -37.76,37.78z"/>
    <path class="fil0" d="M746.07 850.6c-58.83,0 -106.69,47.86 -106.69,106.69 0,58.84 47.86,106.71 106.69,106.71 58.83,0 106.7,-47.87 106.7,-106.71 0,-58.83 -47.87,-106.69 -106.7,-106.69zm0 144.46c-20.82,0 -37.76,-16.95 -37.76,-37.78 0,-20.82 16.94,-37.75 37.76,-37.75 20.82,0 37.77,16.94 37.77,37.75 0,20.83 -16.94,37.78 -37.77,37.78z"/>
    <path class="fil0" d="M952.23 363.42c-6.53,-8.44 -16.6,-13.39 -27.27,-13.39l-687.02 0 -28.85 -110.94c-3.95,-15.19 -17.67,-25.79 -33.36,-25.79l-141.27 0c-19.03,0 -34.47,15.43 -34.47,34.47 0,19.04 15.43,34.47 34.47,34.47l114.62 0 28.62 110.05c0.14,0.62 0.3,1.23 0.48,1.83l106.42 409.22c3.95,15.19 17.67,25.79 33.36,25.79l500.34 0c15.69,0 29.41,-10.6 33.36,-25.79l106.66 -410.16c2.68,-10.32 0.43,-21.31 -6.09,-29.75zm-160.58 396.78l-447.04 0 -88.74 -341.23 624.52 0 -88.74 341.23z"/>
    <path class="fil0" d="M432.82 242.88c6.73,6.72 15.55,10.09 24.37,10.09 8.82,0 17.65,-3.37 24.38,-10.1 13.46,-13.47 13.45,-35.29 -0.01,-48.75l-108.4 -108.35c-13.47,-13.45 -35.28,-13.45 -48.75,0.01 -13.46,13.47 -13.45,35.29 0.01,48.75l108.4 108.35z"/>
    <path class="fil0" d="M679.23 252.97c8.82,0 17.65,-3.37 24.38,-10.1l108.24 -108.33c13.46,-13.46 13.44,-35.29 -0.02,-48.74 -13.46,-13.45 -35.29,-13.44 -48.74,0.02l-108.24 108.33c-13.45,13.47 -13.44,35.29 0.02,48.75 6.73,6.72 15.54,10.08 24.36,10.08z"/>
    <path class="fil0" d="M568.16 222.02c0,0 0,0 0.01,0 19.03,0 34.46,-15.43 34.47,-34.46l0.04 -153.08c0,-19.04 -15.42,-34.47 -34.46,-34.48 -0,0 -0,0 -0,0 -19.04,0 -34.47,15.43 -34.47,34.46l-0.04 153.08c-0,19.04 15.42,34.47 34.46,34.48z"/>
   </g>
  </g>
 </g>
</svg>
