<?xml version="1.0" encoding="UTF-8"?>
<!DOCTYPE svg PUBLIC "-//W3C//DTD SVG 1.1//EN" "http://www.w3.org/Graphics/SVG/1.1/DTD/svg11.dtd">
<!-- Creator: CorelDRAW -->
<svg xmlns="http://www.w3.org/2000/svg" xml:space="preserve" width="183.708mm" height="70.9027mm" version="1.1" style="shape-rendering:geometricPrecision; text-rendering:geometricPrecision; image-rendering:optimizeQuality; fill-rule:evenodd; clip-rule:evenodd"
viewBox="0 0 18984.78 7327.24"
 xmlns:xlink="http://www.w3.org/1999/xlink"
 xmlns:xodm="http://www.corel.com/coreldraw/odm/2003">
 <defs>
  <style type="text/css">
   <![CDATA[
    .fil0 {fill:#386932;fill-rule:nonzero}
    .fil1 {fill:#FEFFFE;fill-rule:nonzero}
   ]]>
  </style>
 </defs>
 <g id="Capa_x0020_1">
  <metadata id="CorelCorpID_0Corel-Layer"/>
  <polygon class="fil0" points="677.2,0 744.92,13.55 880.36,135.44 1015.79,311.51 1137.69,541.76 1178.33,419.86 1246.05,487.58 1300.22,636.56 1300.22,690.74 1449.21,690.74 1516.93,744.91 1584.65,717.82 1625.28,704.28 1774.26,704.29 1950.33,758.46 2018.04,785.54 2045.14,717.82 2194.12,541.76 2329.56,419.86 2586.89,230.25 2749.42,121.89 2817.14,135.44 2857.77,243.79 2898.41,487.58 2911.95,650.1 2911.95,1178.32 3074.48,1218.95 3088.02,1246.05 3115.11,1584.64 3115.11,1692.99 3020.29,1692.98 3101.56,1855.51 3115.1,1909.68 3115.1,2126.39 3088.01,2234.73 3006.75,2207.65 3033.84,2383.72 3060.92,2817.13 3128.64,2925.47 3223.45,3020.29 3413.07,3128.64 3589.14,3196.35 3778.76,3236.99 4144.44,3277.62 4564.3,3304.72 4943.53,3318.25 5200.87,3345.35 5295.67,3358.89 5417.57,3169.28 5485.29,3020.3 5525.92,2857.77 5525.92,2559.81 5498.83,2383.73 5498.83,2316.01 5525.92,2288.92 5620.73,2302.47 5742.63,2397.28 5850.98,2532.72 5905.16,2505.62 5945.79,2559.79 5986.42,2708.78 5986.42,2857.76 6040.6,2830.68 6081.21,2830.66 6081.21,2993.19 6040.57,3128.63 6121.84,3115.08 6148.93,3142.18 6135.38,3264.07 6067.66,3426.6 5945.77,3602.67 5891.6,3683.93 5986.4,3792.28 6094.76,3914.19 6230.19,4117.35 6338.54,4361.13 6419.81,4672.65 6514.62,5160.22 6595.88,5431.1 6677.14,5593.63 6853.22,5850.96 6839.67,5891.6 6799.03,5918.68 6866.75,6094.76 6880.3,6162.48 6839.67,6162.46 6785.49,6121.82 6839.67,6311.44 6853.21,6392.7 6853.21,6771.93 6826.12,7015.72 6785.49,7151.16 6704.22,7218.88 6541.69,7245.97 6054.12,7245.97 5878.05,7191.8 5810.33,7110.54 5823.88,6988.64 5891.6,6893.83 6013.49,6812.56 6094.76,6771.93 6094.76,6595.86 6027.04,6487.51 5891.6,6365.61 5864.51,6352.07 5837.42,6650.02 5796.79,6799.01 5742.61,6839.65 5674.9,6853.2 5376.93,6866.73 5214.4,6866.74 5011.24,6839.66 4929.98,6785.49 4916.43,6717.77 4957.06,6609.41 5051.87,6528.14 5160.22,6460.43 5187.31,6406.25 5173.77,6297.91 5119.6,6216.64 4943.53,6067.66 4889.35,5986.39 4835.18,6013.49 4713.28,5918.67 4577.84,5729.06 4523.67,5620.71 4374.69,5661.34 4063.17,5783.24 3778.76,5878.05 3534.96,5932.22 3467.24,5932.22 3467.24,6270.81 3440.16,6311.44 3345.34,6338.54 3345.34,6609.41 3331.8,6636.51 3237,6636.5 3182.82,6622.96 3182.82,6785.49 3128.65,6961.55 3074.48,7056.37 3033.85,7042.82 3020.3,6975.1 2993.21,6975.1 2952.58,7110.53 2871.31,7245.97 2817.14,7300.14 2668.16,7327.23 2139.94,7327.24 1950.32,7286.6 1882.6,7232.43 1869.07,7205.33 1869.07,7110.53 1909.7,7029.27 1530.47,7029.27 1354.4,7015.73 1205.41,6961.55 1178.33,6880.29 1218.96,6771.94 1286.68,6704.22 1408.57,6622.96 1530.48,6568.78 1584.65,6446.89 1598.2,6284.36 1584.65,6203.09 1584.65,5796.78 1489.84,5864.5 1476.29,5850.95 1462.76,5634.25 1395.04,5417.56 1313.77,5214.4 1286.68,5024.77 1218.96,5078.95 1110.61,4740.36 1097.06,4645.54 1097.06,4415.3 1042.89,4455.94 1015.8,4455.94 1015.8,4157.97 1029.35,3968.36 1042.89,3575.59 975.17,3589.12 853.28,3589.12 650.12,3534.95 528.21,3467.23 419.86,3372.43 325.05,3223.45 284.42,3128.64 230.25,3169.28 176.07,3142.18 67.72,2925.48 40.63,2803.58 40.63,2573.34 54.17,2546.25 -0,2559.79 27.1,2383.72 94.81,2248.29 230.25,2112.85 284.42,1936.78 325.05,1760.7 216.7,1774.25 203.16,1760.7 203.16,1652.36 257.33,1503.37 338.59,1381.48 406.31,1286.67 297.96,1300.21 284.42,1246.04 325.05,1137.68 392.77,1056.43 419.87,1056.43 365.7,934.52 365.7,907.44 419.87,893.89 406.32,785.53 528.22,799.08 501.14,717.81 501.14,501.12 568.85,216.7 636.57,40.62 "/>
  <polygon class="fil0" points="12131.58,3087.79 12321.19,3087.79 12497.27,3141.96 12619.16,3209.68 12727.51,3304.49 12822.32,3453.47 12876.49,3629.54 12876.49,3900.42 12822.32,4076.5 12741.06,4211.93 12632.71,4320.28 12443.1,4415.09 12348.28,4442.18 12090.95,4442.17 11914.87,4388 11779.44,4306.74 11684.64,4211.93 11603.37,4076.5 11549.2,3900.42 11549.2,3656.63 11589.83,3507.65 11657.55,3372.21 11779.44,3236.78 11901.34,3155.51 12063.87,3101.34 "/>
  <polygon class="fil0" points="16939.66,3114.88 17413.7,3114.88 17576.22,3141.97 17738.75,3209.68 17860.64,3304.5 17955.45,3439.93 18009.62,3616 18009.62,3913.97 17955.45,4090.03 17860.64,4225.47 17752.29,4320.28 17643.93,4374.45 17508.5,4415.09 17359.51,4428.63 16953.19,4428.63 16912.56,4401.54 16912.56,3141.96 "/>
  <polygon class="fil0" points="15815.51,3114.88 16303.09,3114.88 16465.62,3155.51 16546.88,3209.68 16628.14,3304.5 16668.78,3453.48 16668.78,3561.83 16628.14,3683.72 16533.34,3792.08 16452.08,3846.25 16411.44,3859.8 16438.53,3927.52 16736.5,4374.46 16722.95,4428.64 16492.71,4428.63 16424.99,4401.54 16140.56,3968.13 16072.84,3900.41 16059.31,4415.09 15937.4,4428.63 15801.96,4415.09 15788.42,4401.54 15788.42,3141.96 "/>
  <polygon class="fil0" points="9409.26,3114.88 9923.93,3114.88 10100,3169.05 10194.8,3250.32 10248.99,3372.21 10262.52,3439.93 10248.99,3616 10181.27,3751.44 10072.91,3832.7 10005.19,3873.34 10343.79,4388.01 10330.24,4428.64 10059.36,4428.63 9978.11,4333.82 9829.12,4103.58 9707.23,3913.96 9666.59,3900.41 9653.04,4415.09 9422.8,4428.63 9382.16,4401.54 9382.16,3141.96 "/>
  <polygon class="fil0" points="10546.94,3114.88 11007.44,3114.88 11183.51,3155.51 11291.86,3236.78 11346.04,3318.04 11373.12,3399.31 11373.12,3588.92 11318.95,3710.82 11237.69,3805.63 11115.79,3873.35 11413.76,4320.29 11454.39,4388.01 11440.84,4428.64 11169.96,4428.63 11115.79,4374.45 10831.36,3927.51 10831.36,3900.41 10777.19,3900.42 10777.19,4388 10736.56,4428.63 10533.41,4428.63 10506.31,4415.09 10506.31,3141.96 "/>
  <polygon class="fil0" points="7377.68,3114.88 7865.26,3114.88 8041.33,3169.05 8149.68,3263.86 8203.86,3385.76 8217.4,3561.83 8176.77,3724.36 8095.5,3832.71 7987.15,3900.42 7892.34,3927.52 7621.46,3941.06 7607.92,4415.1 7350.59,4415.09 7337.04,4401.55 7337.04,3155.51 "/>
  <polygon class="fil0" points="8434.1,3114.88 9138.38,3114.88 9151.93,3128.42 9151.93,3345.12 9124.84,3358.67 8691.43,3358.67 8677.9,3629.55 9124.84,3629.54 9138.38,3656.63 9138.38,3846.25 9124.84,3873.34 8677.9,3873.34 8677.9,4184.84 9151.93,4184.84 9165.48,4211.93 9165.48,4401.55 9151.93,4415.09 8447.65,4428.63 8407.02,4401.55 8407.02,3141.96 "/>
  <polygon class="fil0" points="14840.35,3114.88 15558.18,3114.88 15558.18,3345.12 15544.63,3358.67 15097.69,3358.67 15097.69,3629.55 15531.09,3629.54 15544.64,3643.09 15544.64,3859.79 15531.09,3873.34 15084.14,3873.34 15097.69,4171.29 15558.18,4184.84 15571.73,4198.39 15571.73,4415.09 15490.46,4428.63 14867.44,4428.63 14826.81,4415.09 14813.27,3155.5 "/>
  <polygon class="fil0" points="18266.95,3114.88 18957.69,3114.88 18971.24,3128.42 18971.24,3345.12 18510.75,3345.12 18510.75,3629.55 18930.6,3629.54 18944.15,3643.09 18944.15,3859.79 18930.6,3873.34 18497.2,3873.34 18510.75,4171.29 18971.23,4184.84 18984.78,4198.39 18984.78,4401.55 18971.23,4415.09 18239.87,4415.09 18226.32,4374.45 18226.32,3141.96 "/>
  <polygon class="fil0" points="13526.6,3114.88 13783.93,3114.88 13865.2,3318.04 14054.81,3873.34 14081.89,3968.14 14081.89,4022.32 14108.98,4022.31 14122.53,3927.51 14366.32,3223.23 14420.5,3114.88 14677.83,3114.88 14691.38,3169.05 14583.02,3439.93 14434.03,3846.25 14298.6,4198.39 14217.34,4415.09 14122.53,4428.63 14000.64,4428.63 13960,4374.45 13770.39,3873.34 13499.51,3155.51 "/>
  <polygon class="fil1" points="12158.67,3345.12 12294.11,3345.12 12402.46,3385.76 12510.82,3480.56 12578.54,3629.55 12592.07,3724.36 12592.07,3832.71 12564.99,3954.6 12483.73,4090.04 12388.91,4157.76 12307.66,4184.85 12118.03,4184.84 11982.6,4117.12 11887.8,4008.77 11847.16,3886.87 11847.16,3670.18 11901.33,3521.19 11996.14,3412.83 12104.49,3358.66 "/>
  <polygon class="fil1" points="17196.99,3345.12 17318.88,3345.12 17467.87,3372.21 17576.22,3426.39 17671.03,3521.2 17725.2,3656.63 17725.2,3886.87 17671.03,4022.31 17549.13,4130.67 17440.77,4171.3 17345.97,4184.85 17183.44,4184.84 17183.44,3358.66 "/>
  <polygon class="fil0" points="14879.43,5075 15001.33,5075 15001.33,5142.71 15028.41,5142.71 15028.41,5115.62 15096.13,5074.99 15231.57,5075 15312.83,5129.17 15367.01,5210.43 15380.55,5251.06 15380.55,5440.68 15339.92,5521.94 15258.65,5589.66 15231.57,5603.21 15109.67,5603.2 15028.41,5562.57 15014.87,5779.26 15001.32,5792.81 14879.43,5792.82 14865.88,5779.27 14865.88,5088.54 "/>
  <polygon class="fil0" points="14418.93,5061.45 14554.38,5075 14635.64,5129.17 14703.35,5210.43 14730.45,5291.7 14730.45,5400.05 14676.28,5508.39 14608.56,5562.58 14500.2,5603.21 14364.76,5589.66 14269.96,5535.49 14215.78,5467.77 14188.69,5400.05 14188.69,5264.61 14269.96,5129.18 14364.76,5075.01 "/>
  <polygon class="fil0" points="11073.61,4885.38 11358.02,4885.38 11466.38,4939.55 11520.55,5007.27 11534.09,5129.17 11493.45,5237.52 11412.2,5305.23 11330.93,5332.33 11209.04,5332.32 11209.04,5576.11 11195.5,5589.65 11060.06,5589.65 11060.06,4898.91 "/>
  <polygon class="fil0" points="13579.22,4831.2 13701.11,4831.2 13714.66,4844.75 13728.21,5115.63 13795.93,5075 13931.36,5075 14012.62,5142.71 14039.71,5237.52 14039.71,5576.11 14026.16,5589.66 13890.72,5589.65 13877.18,5251.06 13850.09,5210.43 13755.29,5210.43 13728.2,5237.52 13714.66,5576.11 13701.11,5589.66 13579.22,5589.65 13565.67,5576.11 13565.67,4844.74 "/>
  <polygon class="fil0" points="13159.36,4858.29 13281.25,4871.84 13362.52,4926.01 13376.06,4953.1 13335.42,5034.36 13281.25,5020.82 13240.62,5007.27 13145.81,5007.27 13118.73,5034.36 13132.26,5088.54 13335.42,5210.43 13403.14,5291.7 13416.69,5400.05 13376.06,5508.39 13281.25,5589.66 13227.07,5603.21 13105.18,5603.2 12996.83,5562.57 12929.11,5508.39 12942.65,5454.22 13010.37,5400.05 13105.18,5454.22 13213.53,5454.22 13240.63,5427.13 13240.63,5332.32 13172.91,5305.23 13010.38,5210.43 12956.21,5129.16 12956.21,5007.27 13010.38,4926 13091.64,4871.83 "/>
  <polygon class="fil0" points="11791.43,5075 11953.96,5075 12035.21,5129.17 12089.39,5196.89 12102.93,5223.98 12102.93,5359.42 12062.3,5372.95 11764.33,5372.95 11804.97,5454.22 11859.14,5481.31 11967.49,5467.76 12048.76,5413.59 12102.93,5494.86 11994.58,5589.66 11940.41,5603.21 11832.05,5603.2 11737.25,5562.57 11655.98,5494.85 11615.35,5400.04 11615.35,5278.15 11669.53,5156.25 11750.79,5088.53 "/>
  <polygon class="fil0" points="12279.01,4939.55 12414.44,4939.55 12414.44,5074.99 12522.79,5075 12536.34,5088.54 12536.34,5183.34 12522.79,5196.89 12427.99,5210.44 12427.99,5467.77 12522.79,5467.76 12522.79,5576.11 12495.71,5603.21 12387.36,5603.2 12319.64,5562.57 12279.01,5508.39 12279.01,5196.89 12197.74,5196.89 12184.19,5088.54 12197.74,5074.99 12279.01,5075 "/>
  <polygon class="fil1" points="7621.47,3331.57 7743.36,3331.57 7865.26,3372.21 7919.44,3439.93 7932.98,3561.83 7892.34,3643.09 7811.08,3697.26 7716.28,3710.81 7607.92,3710.81 7607.92,3345.12 "/>
  <polygon class="fil1" points="9666.59,3331.57 9856.21,3345.12 9923.93,3385.76 9978.11,3453.48 9978.11,3575.37 9937.47,3643.09 9869.75,3683.72 9666.59,3697.27 9653.04,3683.72 9653.04,3345.13 "/>
  <polygon class="fil1" points="10790.74,3331.57 10926.18,3331.57 11034.52,3372.21 11088.7,3453.48 11102.24,3534.73 11061.61,3629.55 11020.97,3670.19 10885.54,3697.27 10790.74,3697.26 10777.19,3683.71 10777.19,3345.12 "/>
  <polygon class="fil1" points="16059.31,3345.12 16262.47,3345.12 16343.72,3399.29 16384.36,3480.56 16370.82,3602.46 16289.55,3670.18 16248.92,3683.72 16059.31,3683.72 "/>
  <polygon class="fil1" points="14432.48,5183.34 14513.75,5196.89 14567.92,5251.06 14581.46,5291.7 14581.46,5386.5 14513.75,5467.76 14418.93,5481.31 14351.23,5427.14 14337.68,5400.05 14337.68,5278.15 14391.85,5196.89 "/>
  <polygon class="fil1" points="15082.59,5196.89 15163.86,5196.89 15218.03,5251.06 15231.57,5278.15 15231.57,5400.05 15177.39,5467.76 15109.67,5481.31 15041.96,5440.67 15014.87,5400.04 15014.87,5278.15 15055.5,5210.43 "/>
  <polygon class="fil1" points="11209.04,5007.27 11317.39,5007.27 11371.56,5061.44 11371.56,5142.71 11330.93,5196.88 11209.04,5210.43 "/>
  <polygon class="fil1" points="11845.6,5183.34 11940.41,5196.89 11967.49,5237.52 11967.49,5278.16 11777.88,5278.15 11764.33,5251.06 11804.97,5196.89 "/>
 </g>
</svg>
