<?xml version="1.0" encoding="UTF-8"?>
<!DOCTYPE svg PUBLIC "-//W3C//DTD SVG 1.1//EN" "http://www.w3.org/Graphics/SVG/1.1/DTD/svg11.dtd">
<!-- Creator: CorelDRAW -->
<svg xmlns="http://www.w3.org/2000/svg" xml:space="preserve" width="137.454mm" height="139.532mm" version="1.1" style="shape-rendering:geometricPrecision; text-rendering:geometricPrecision; image-rendering:optimizeQuality; fill-rule:evenodd; clip-rule:evenodd"
viewBox="0 0 14876.05 15100.92"
 xmlns:xlink="http://www.w3.org/1999/xlink"
 xmlns:xodm="http://www.corel.com/coreldraw/odm/2003">
 <defs>
  <style type="text/css">
   <![CDATA[
    .fil0 {fill:#386932;fill-rule:nonzero}
    .fil1 {fill:#FEFFFE;fill-rule:nonzero}
   ]]>
  </style>
 </defs>
 <g id="Capa_x0020_1">
  <metadata id="CorelCorpID_0Corel-Layer"/>
  <polygon class="fil0" points="3978.47,0 4064.97,17.29 4237.95,172.98 4410.91,397.86 4566.59,691.92 4618.5,536.24 4704.98,622.72 4774.17,812.99 4774.17,882.18 4964.45,882.19 5050.93,951.38 5137.43,916.78 5189.32,899.48 5379.59,899.48 5604.46,968.67 5690.96,1003.27 5725.56,916.79 5915.83,691.92 6088.81,536.24 6417.46,294.06 6625.03,155.67 6711.52,172.98 6763.42,311.36 6815.31,622.72 6832.62,830.29 6832.62,1504.91 7040.18,1556.8 7057.49,1591.4 7092.08,2023.85 7092.08,2162.22 6970.98,2162.21 7074.77,2369.79 7092.07,2438.98 7092.07,2715.74 7057.47,2854.12 6953.69,2819.52 6988.28,3044.39 7022.88,3597.92 7109.37,3736.31 7230.45,3857.39 7472.62,3995.78 7697.49,4082.26 7939.67,4134.17 8406.71,4186.06 8942.94,4220.66 9427.27,4237.96 9755.93,4272.56 9877.02,4289.85 10032.7,4047.69 10119.19,3857.41 10171.08,3649.84 10171.08,3269.28 10136.49,3044.41 10136.49,2957.93 10171.08,2923.33 10292.17,2940.63 10447.86,3061.72 10586.23,3234.7 10655.42,3200.1 10707.33,3269.28 10759.22,3459.56 10759.22,3649.83 10828.41,3615.23 10880.28,3615.23 10880.28,3822.8 10828.38,3995.77 10932.16,3978.47 10966.76,4013.07 10949.47,4168.76 10862.98,4376.33 10707.29,4601.2 10638.1,4704.98 10759.19,4843.37 10897.58,4999.05 11070.55,5258.52 11208.94,5569.89 11312.72,5967.72 11433.81,6590.44 11537.59,6936.41 11641.38,7143.97 11866.25,7472.63 11848.95,7524.54 11797.06,7559.12 11883.54,7783.99 11900.85,7870.49 11848.94,7870.47 11779.75,7818.57 11848.94,8060.74 11866.25,8164.53 11866.25,8648.87 11831.65,8960.22 11779.75,9133.2 11675.97,9219.68 11468.39,9254.28 10845.68,9254.29 10620.81,9185.1 10534.32,9081.31 10551.62,8925.63 10638.1,8804.55 10793.79,8700.76 10897.58,8648.87 10897.58,8423.99 10811.09,8285.61 10638.12,8129.93 10603.52,8112.62 10568.92,8493.17 10517.02,8683.45 10447.83,8735.34 10361.34,8752.64 9980.8,8769.94 9773.22,8769.95 9513.75,8735.36 9409.96,8666.17 9392.66,8579.68 9444.56,8441.3 9565.64,8337.51 9704.03,8251.02 9738.62,8181.83 9721.33,8043.45 9652.14,7939.67 9427.27,7749.38 9358.08,7645.61 9288.89,7680.2 9133.21,7559.11 8960.23,7316.95 8891.04,7178.56 8700.77,7230.45 8302.92,7386.14 7939.67,7507.23 7628.3,7576.42 7541.81,7576.41 7541.81,8008.85 7507.22,8060.75 7386.13,8095.35 7386.13,8441.3 7368.83,8475.9 7247.75,8475.89 7178.56,8458.6 7178.56,8666.17 7109.37,8891.04 7040.18,9012.13 6988.29,8994.82 6970.99,8908.34 6936.39,8908.33 6884.5,9081.3 6780.71,9254.28 6711.52,9323.47 6521.24,9358.07 5846.63,9358.08 5604.46,9306.17 5517.97,9236.99 5500.68,9202.4 5500.68,9081.3 5552.57,8977.52 5068.24,8977.53 4843.37,8960.23 4653.09,8891.04 4618.5,8787.26 4670.39,8648.87 4756.88,8562.38 4912.56,8458.6 5068.24,8389.41 5137.43,8233.73 5154.73,8026.15 5137.43,7922.36 5137.43,7403.43 5016.35,7489.92 4999.05,7472.62 4981.75,7195.85 4895.26,6919.1 4791.48,6659.63 4756.88,6417.45 4670.39,6486.64 4532,6054.21 4514.71,5933.11 4514.71,5639.05 4445.52,5690.96 4410.92,5690.96 4410.92,5310.41 4428.22,5068.24 4445.52,4566.6 4359.03,4583.9 4203.35,4583.9 3943.88,4514.71 3788.19,4428.23 3649.82,4307.13 3528.72,4116.86 3476.83,3995.78 3407.64,4047.67 3338.45,4013.07 3200.07,3736.32 3165.47,3580.64 3165.47,3286.58 3182.77,3251.98 3113.58,3269.27 3148.18,3044.4 3234.66,2871.43 3407.64,2698.45 3476.83,2473.58 3528.72,2248.71 3390.35,2266.01 3373.04,2248.71 3373.04,2110.33 3442.23,1920.05 3546.02,1764.37 3632.51,1643.28 3494.12,1660.58 3476.83,1591.39 3528.72,1453.01 3615.21,1349.22 3649.82,1349.22 3580.63,1193.54 3580.63,1158.94 3649.82,1141.65 3632.52,1003.26 3788.2,1020.55 3753.6,916.78 3753.6,640.01 3840.1,276.75 3926.58,51.88 "/>
  <polygon class="fil0" points="6123.39,11451.11 6365.56,11451.11 6590.44,11520.29 6746.12,11606.78 6884.5,11727.86 7005.58,11918.14 7074.77,12143.01 7074.77,12488.97 7005.58,12713.84 6901.81,12886.81 6763.42,13025.2 6521.24,13146.28 6400.16,13180.88 6071.5,13180.87 5846.63,13111.68 5673.65,13007.9 5552.57,12886.81 5448.78,12713.84 5379.59,12488.97 5379.59,12177.61 5431.5,11987.33 5517.98,11814.35 5673.66,11641.39 5829.35,11537.6 6036.92,11468.41 "/>
  <polygon class="fil0" points="12264.09,11485.7 12869.52,11485.7 13077.09,11520.29 13284.66,11606.79 13440.34,11727.87 13561.44,11900.85 13630.62,12125.72 13630.62,12506.27 13561.44,12731.14 13440.34,12904.11 13301.97,13025.2 13163.58,13094.39 12990.6,13146.28 12800.33,13163.58 12281.39,13163.58 12229.49,13128.98 12229.49,11520.28 "/>
  <polygon class="fil0" points="10828.38,11485.7 11451.09,11485.7 11658.67,11537.6 11762.46,11606.79 11866.25,11727.87 11918.14,11918.14 11918.14,12056.53 11866.25,12212.21 11745.15,12350.6 11641.38,12419.79 11589.47,12437.08 11624.07,12523.58 12004.62,13094.4 11987.32,13163.59 11693.27,13163.58 11606.78,13128.98 11243.53,12575.45 11157.03,12488.95 11139.74,13146.27 10984.06,13163.58 10811.08,13146.27 10793.79,13128.98 10793.79,11520.28 "/>
  <polygon class="fil0" points="2646.56,11485.7 3303.87,11485.7 3528.74,11554.89 3649.83,11658.67 3719.02,11814.35 3736.31,11900.85 3719.02,12125.72 3632.52,12298.69 3494.14,12402.48 3407.65,12454.38 3840.1,13111.69 3822.8,13163.59 3476.84,13163.58 3373.06,13042.48 3182.78,12748.42 3027.1,12506.26 2975.2,12488.95 2957.91,13146.27 2663.85,13163.58 2611.94,13128.98 2611.94,11520.28 "/>
  <polygon class="fil0" points="4099.56,11485.7 4687.69,11485.7 4912.56,11537.6 5050.93,11641.39 5120.12,11745.16 5154.72,11848.95 5154.72,12091.13 5085.53,12246.81 4981.75,12367.89 4826.06,12454.38 5206.62,13025.21 5258.51,13111.69 5241.22,13163.6 4895.25,13163.58 4826.06,13094.39 4462.82,12523.55 4462.82,12488.95 4393.63,12488.97 4393.63,13111.68 4341.72,13163.58 4082.26,13163.58 4047.66,13146.27 4047.66,11520.29 "/>
  <polygon class="fil0" points="51.89,11485.7 674.61,11485.7 899.48,11554.89 1037.87,11675.98 1107.06,11831.66 1124.35,12056.53 1072.46,12264.11 968.67,12402.48 830.28,12488.98 709.2,12523.58 363.25,12540.87 345.94,13146.29 17.29,13146.28 -0,13128.99 -0,11537.59 "/>
  <polygon class="fil0" points="1401.12,11485.7 2300.59,11485.7 2317.9,11503 2317.9,11779.76 2283.3,11797.06 1729.78,11797.06 1712.47,12143.01 2283.3,12143.01 2300.59,12177.61 2300.59,12419.78 2283.3,12454.38 1712.47,12454.37 1712.47,12852.21 2317.9,12852.21 2335.19,12886.81 2335.19,13128.99 2317.9,13146.28 1418.41,13163.58 1366.52,13128.99 1366.52,11520.29 "/>
  <polygon class="fil0" points="9582.94,11485.7 10499.72,11485.7 10499.72,11779.76 10482.42,11797.06 9911.6,11797.06 9911.6,12143.01 10465.13,12143.01 10482.43,12160.31 10482.43,12437.07 10465.13,12454.37 9894.3,12454.37 9911.6,12834.92 10499.72,12852.21 10517.02,12869.52 10517.02,13146.27 10413.23,13163.58 9617.54,13163.58 9565.64,13146.27 9548.35,11537.59 "/>
  <polygon class="fil0" points="13959.27,11485.7 14841.46,11485.7 14858.76,11503 14858.76,11779.76 14270.63,11779.76 14270.63,12143.01 14806.86,12143.01 14824.16,12160.31 14824.16,12437.07 14806.86,12454.37 14253.33,12454.37 14270.63,12834.92 14858.76,12852.21 14876.05,12869.52 14876.05,13128.99 14858.76,13146.28 13924.67,13146.28 13907.38,13094.39 13907.38,11520.29 "/>
  <polygon class="fil0" points="7905.07,11485.7 8233.71,11485.7 8337.5,11745.16 8579.68,12454.38 8614.28,12575.46 8614.28,12644.65 8648.87,12644.65 8666.16,12523.55 8977.53,11624.08 9046.71,11485.69 9375.37,11485.7 9392.67,11554.89 9254.28,11900.85 9064.01,12419.78 8891.03,12869.52 8787.24,13146.28 8666.16,13163.58 8510.49,13163.58 8458.6,13094.39 8216.42,12454.37 7870.47,11537.59 "/>
  <polygon class="fil1" points="6157.99,11779.76 6330.97,11779.76 6469.36,11831.66 6607.75,11952.74 6694.23,12143.01 6711.52,12264.11 6711.52,12402.48 6676.94,12558.16 6573.15,12731.14 6452.05,12817.64 6348.28,12852.22 6106.1,12852.21 5933.12,12765.73 5812.04,12627.34 5760.15,12471.66 5760.15,12194.9 5829.34,12004.62 5950.42,11866.24 6088.81,11797.05 "/>
  <polygon class="fil1" points="12592.75,11779.76 12748.44,11779.76 12938.71,11814.35 13077.09,11883.54 13198.18,12004.63 13267.37,12177.61 13267.37,12471.67 13198.18,12644.65 13042.5,12783.02 12904.11,12834.92 12783.02,12852.22 12575.45,12852.21 12575.45,11797.05 "/>
  <polygon class="fil0" points="9496.46,14184.14 9652.14,14184.14 9652.14,14270.64 9686.73,14270.64 9686.73,14236.04 9773.22,14184.14 9946.2,14184.14 10049.99,14253.33 10119.17,14357.12 10136.47,14409.01 10136.47,14651.19 10084.58,14754.98 9980.79,14841.46 9946.19,14858.77 9790.52,14858.76 9686.73,14806.86 9669.43,15083.62 9652.13,15100.92 9496.46,15100.92 9479.16,15083.63 9479.16,14201.44 "/>
  <polygon class="fil0" points="8908.34,14166.85 9081.31,14184.14 9185.09,14253.33 9271.59,14357.12 9306.19,14460.91 9306.19,14599.3 9237,14737.67 9150.5,14806.86 9012.13,14858.77 8839.15,14841.46 8718.06,14772.27 8648.87,14685.79 8614.28,14599.3 8614.28,14426.32 8718.06,14253.35 8839.15,14184.15 "/>
  <polygon class="fil0" points="4635.79,13941.98 4999.04,13941.98 5137.43,14011.17 5206.62,14097.65 5223.91,14253.33 5172.02,14391.72 5068.23,14478.2 4964.44,14512.8 4808.77,14512.8 4808.77,14824.16 4791.46,14841.46 4618.5,14841.46 4618.5,13959.27 "/>
  <polygon class="fil0" points="7835.88,13872.79 7991.56,13872.79 8008.85,13890.08 8026.15,14236.05 8112.64,14184.14 8285.62,14184.14 8389.41,14270.64 8424,14391.72 8424,14824.17 8406.7,14841.46 8233.71,14841.46 8216.42,14409.01 8181.82,14357.12 8060.75,14357.12 8026.15,14391.72 8008.84,14824.17 7991.55,14841.46 7835.88,14841.46 7818.57,14824.16 7818.57,13890.08 "/>
  <polygon class="fil0" points="7299.64,13907.38 7455.32,13924.67 7559.11,13993.86 7576.41,14028.46 7524.51,14132.25 7455.32,14114.95 7403.43,14097.65 7282.35,14097.65 7247.75,14132.25 7265.04,14201.44 7524.51,14357.12 7611,14460.91 7628.3,14599.3 7576.41,14737.67 7455.31,14841.46 7386.13,14858.77 7230.45,14858.76 7092.07,14806.86 7005.58,14737.67 7022.88,14668.48 7109.37,14599.3 7230.45,14668.48 7368.84,14668.48 7403.43,14633.88 7403.43,14512.8 7316.95,14478.2 7109.37,14357.12 7040.18,14253.33 7040.18,14097.65 7109.37,13993.86 7213.16,13924.67 "/>
  <polygon class="fil0" points="5552.57,14184.14 5760.15,14184.14 5863.93,14253.33 5933.12,14339.83 5950.42,14374.43 5950.42,14547.39 5898.52,14564.7 5517.97,14564.7 5569.88,14668.48 5639.06,14703.07 5777.44,14685.78 5881.23,14616.59 5950.42,14720.38 5812.03,14841.46 5742.84,14858.77 5604.46,14858.76 5483.38,14806.86 5379.59,14720.37 5327.69,14599.29 5327.69,14443.6 5396.88,14287.92 5500.67,14201.43 "/>
  <polygon class="fil0" points="6175.29,14011.17 6348.27,14011.17 6348.27,14184.14 6486.65,14184.14 6503.95,14201.45 6503.95,14322.53 6486.65,14339.83 6365.56,14357.13 6365.56,14685.79 6486.65,14685.78 6486.65,14824.17 6452.05,14858.77 6313.68,14858.76 6227.18,14806.86 6175.29,14737.67 6175.29,14339.83 6071.5,14339.83 6054.21,14201.44 6071.5,14184.14 6175.29,14184.14 "/>
  <polygon class="fil1" points="363.25,11762.46 518.93,11762.46 674.61,11814.35 743.8,11900.85 761.1,12056.53 709.2,12160.32 605.41,12229.51 484.33,12246.8 345.95,12246.8 345.95,11779.75 "/>
  <polygon class="fil1" points="2975.21,11762.46 3217.38,11779.76 3303.87,11831.66 3373.06,11918.14 3373.06,12073.82 3321.16,12160.32 3234.67,12212.21 2975.2,12229.51 2957.91,12212.21 2957.91,11779.76 "/>
  <polygon class="fil1" points="4410.92,11762.46 4583.9,11762.46 4722.28,11814.35 4791.46,11918.14 4808.77,12021.93 4756.88,12143.01 4704.97,12194.92 4532,12229.51 4410.92,12229.49 4393.63,12212.2 4393.63,11779.75 "/>
  <polygon class="fil1" points="11139.74,11779.76 11399.21,11779.76 11503,11848.95 11554.89,11952.74 11537.59,12108.42 11433.81,12194.91 11381.91,12212.2 11139.74,12212.2 "/>
  <polygon class="fil1" points="8925.63,14322.52 9029.42,14339.83 9098.61,14409.01 9115.9,14460.91 9115.9,14581.99 9029.42,14685.78 8908.34,14703.07 8821.84,14633.88 8804.55,14599.3 8804.55,14443.61 8873.74,14339.83 "/>
  <polygon class="fil1" points="9755.93,14339.83 9859.72,14339.83 9928.9,14409.01 9946.2,14443.61 9946.2,14599.3 9877.01,14685.78 9790.53,14703.07 9704.03,14651.18 9669.43,14599.29 9669.43,14443.6 9721.34,14357.12 "/>
  <polygon class="fil1" points="4808.77,14097.65 4947.16,14097.65 5016.35,14166.84 5016.35,14270.63 4964.44,14339.81 4808.76,14357.12 "/>
  <polygon class="fil1" points="5621.76,14322.52 5742.84,14339.83 5777.44,14391.72 5777.44,14443.61 5535.28,14443.61 5517.97,14409.01 5569.88,14339.83 "/>
 </g>
</svg>
